<svg id="Layer_1" data-name="Layer 1" xmlns="http://www.w3.org/2000/svg" viewBox="0 0 316.13 652.18"><defs><style>.cls-1{fill:#231f20;}</style></defs><path class="cls-1" d="M283,202.9h48.66l187,209.72-6.31,4.85V202.9h53.13V474H516.33L329.84,267.46l6.31-4.85V474H283Z" transform="translate(-264.01 -16.1)"/><path class="cls-1" d="M371.72,229.76a322.13,322.13,0,0,1-51.63-11,238.13,238.13,0,0,1-44.26-18.31l41.51-30.32a303.47,303.47,0,0,0,57.3,19.53,251.84,251.84,0,0,0,56.26,6.51q41.51,0,62.27-7.63t20.76-22.89q0-10.17-11.32-15.26t-28.14-6.82q-16.8-1.72-47.34-3.15c-1.83,0-3.77,0-5.83-.1s-4-.17-5.84-.31c-.91,0-1.83,0-2.74-.1s-1.83-.1-2.74-.1q-34.67-1.63-58.67-6t-40-16.38q-15.94-12-15.95-34.39t15.44-37.24q15.44-14.85,46-22.28t76.5-7.43a440.22,440.22,0,0,1,53,3.06,362.89,362.89,0,0,1,48.2,9.05,310.52,310.52,0,0,1,44.26,15.16l-42.2,30.32a324.23,324.23,0,0,0-52.66-15.26,262.45,262.45,0,0,0-50.61-5.09q-35.68,0-53.52,7.22T361.94,82.23q0,8.55,10.13,12.82t25.55,5.7q15.45,1.43,43.92,2.44a42.22,42.22,0,0,0,4.29.21c1.48,0,3,.07,4.63.2h2.06a11.14,11.14,0,0,1,2.06.2q37.38,1.42,63.64,5.9t44.08,17.71q17.84,13.23,17.84,38.25,0,22.8-16.47,37.75T514.1,225.89q-33.12,7.53-83.2,7.53A451.17,451.17,0,0,1,371.72,229.76Z" transform="translate(-264.01 -16.1)"/><path class="cls-1" d="M359.9,664.62a321.67,321.67,0,0,1-51.63-11A237.85,237.85,0,0,1,264,635.32L305.52,605a303.38,303.38,0,0,0,57.29,19.53A251.34,251.34,0,0,0,419.08,631q41.51,0,62.27-7.62t20.75-22.9q0-10.17-11.32-15.26t-28.13-6.81q-16.81-1.74-47.34-3.16c-1.84,0-3.78,0-5.84-.1s-4-.17-5.83-.31c-.92,0-1.83,0-2.74-.1s-1.84-.1-2.75-.1q-34.65-1.62-58.67-6t-40-16.38q-16-12-16-34.39T299,480.67q15.44-14.85,46-22.28T421.48,451a440.39,440.39,0,0,1,53,3,363.2,363.2,0,0,1,48.2,9.05A311.77,311.77,0,0,1,567,478.23l-42.2,30.32a324,324,0,0,0-52.67-15.26,262.35,262.35,0,0,0-50.6-5.09q-35.69,0-53.52,7.23T350.12,517.1q0,8.53,10.12,12.82t25.56,5.69q15.43,1.42,43.91,2.44a42.36,42.36,0,0,0,4.29.21c1.49,0,3,.07,4.63.2h2.06a10.29,10.29,0,0,1,2.06.21q37.39,1.43,63.64,5.9t44.09,17.7q17.84,13.23,17.84,38.25,0,22.8-16.47,37.75t-49.58,22.48q-33.11,7.53-83.19,7.53A451.06,451.06,0,0,1,359.9,664.62Z" transform="translate(-264.01 -16.1)"/></svg>