<svg id="Layer_1" data-name="Layer 1" xmlns="http://www.w3.org/2000/svg" viewBox="0 0 749.86 652.18"><defs><style>.cls-1{fill:#231f20;}</style></defs><path class="cls-1" d="M50.94,192.18H99.6l187,209.71-6.32,4.85V192.18h53.14v271.1H284.25L97.76,256.74l6.31-4.85V463.28H50.94Z" transform="translate(-31.92 -5.38)"/><path class="cls-1" d="M139.64,219a322,322,0,0,1-51.64-11,238.05,238.05,0,0,1-44.25-18.32l41.51-30.32A302.73,302.73,0,0,0,142.55,179a251.93,251.93,0,0,0,56.27,6.51q41.51,0,62.27-7.63t20.75-22.89q0-10.17-11.32-15.26t-28.13-6.82q-16.81-1.73-47.35-3.15c-1.83,0-3.77,0-5.83-.11s-4-.16-5.83-.3c-.92,0-1.83,0-2.74-.1s-1.84-.1-2.75-.1q-34.65-1.64-58.67-6t-40-16.38q-16-12-16-34.39T78.74,35.09q15.44-14.85,46-22.28t76.51-7.43a442.45,442.45,0,0,1,53,3.05,364.81,364.81,0,0,1,48.2,9.06,308.73,308.73,0,0,1,44.25,15.16L304.49,63A325,325,0,0,0,251.82,47.7a262.32,262.32,0,0,0-50.6-5.08q-35.68,0-53.52,7.22T129.86,71.51q0,8.55,10.12,12.82T165.54,90q15.44,1.43,43.91,2.44a42.42,42.42,0,0,0,4.29.2c1.49,0,3,.07,4.63.21h2.06a11.06,11.06,0,0,1,2.06.2q37.39,1.42,63.64,5.9t44.09,17.7q17.83,13.23,17.84,38.26,0,22.78-16.47,37.74T282,215.17q-33.1,7.52-83.19,7.53A449.28,449.28,0,0,1,139.64,219Z" transform="translate(-31.92 -5.38)"/><path class="cls-1" d="M407.69,222.36a49.05,49.05,0,0,1-22-10.81L394.21,201a38.3,38.3,0,0,0,12.27,7.3A42.41,42.41,0,0,0,421,210.74q10.59,0,16.43-4a12.73,12.73,0,0,0,5.84-11.18v-.07a11.92,11.92,0,0,0-2.65-8.14,15.91,15.91,0,0,0-6.84-4.46A77,77,0,0,0,423,180.28a1.21,1.21,0,0,0-.43-.07,1.23,1.23,0,0,1-.44-.07l-1-.2a104.11,104.11,0,0,1-15.93-3.82,22.49,22.49,0,0,1-10.5-7.77q-4.35-5.64-4.36-16v-.07a28.7,28.7,0,0,1,4.06-15.57,25.6,25.6,0,0,1,11.84-9.83q7.79-3.37,18.72-3.37a46.63,46.63,0,0,1,10.29,1.14,51.18,51.18,0,0,1,10,3.42,57.58,57.58,0,0,1,9.69,5.7l-7.78,11A45.13,45.13,0,0,0,436,138.5a31.48,31.48,0,0,0-11.1-2.06q-10,0-15.53,4t-5.54,11.38v.06a10.88,10.88,0,0,0,2.86,8,17.25,17.25,0,0,0,7.11,4.28A104.31,104.31,0,0,0,425.67,167l.5.1a3.68,3.68,0,0,1,.5.1l.74.13.74.14a80.7,80.7,0,0,1,14.79,4.32,23.21,23.21,0,0,1,9.93,8.07q4,5.58,4,15.24v.13a27.2,27.2,0,0,1-4.23,15.37,26.44,26.44,0,0,1-12.24,9.73q-8,3.33-19.35,3.34A63.6,63.6,0,0,1,407.69,222.36Z" transform="translate(-31.92 -5.38)"/><path class="cls-1" d="M475,152.58h13.68V251.2H475Zm19.85,68a18.4,18.4,0,0,1-7.11-8.88l.94-14.66a16.94,16.94,0,0,0,1.61,7.7,11.17,11.17,0,0,0,4.66,4.86,15.1,15.1,0,0,0,7.42,1.69q6.77,0,10.49-4.15t3.73-11.72v-15.2q0-7.71-3.73-12T502.34,164a15.67,15.67,0,0,0-7.42,1.62,10.88,10.88,0,0,0-4.66,4.76,16.35,16.35,0,0,0-1.61,7.53l-1.41-13.51a24.26,24.26,0,0,1,8.25-9.49,20.23,20.23,0,0,1,11.34-3.34,23.07,23.07,0,0,1,12.64,3.34,20.93,20.93,0,0,1,8,9.76,39.26,39.26,0,0,1,2.75,15.47v15.27a37.43,37.43,0,0,1-2.82,15.26,21.05,21.05,0,0,1-8.25,9.7,24.42,24.42,0,0,1-13,3.34A20.37,20.37,0,0,1,494.82,220.57Z" transform="translate(-31.92 -5.38)"/><path class="cls-1" d="M560.9,220.13a23.56,23.56,0,0,1-9.83-10.44,36.91,36.91,0,0,1-3.39-16.51V181.76a36.14,36.14,0,0,1,3.39-16.31,23.42,23.42,0,0,1,9.83-10.34,35.68,35.68,0,0,1,31,0,23.46,23.46,0,0,1,9.82,10.34,36.14,36.14,0,0,1,3.39,16.31v11.62a36.36,36.36,0,0,1-3.39,16.38,23.63,23.63,0,0,1-9.82,10.37,35.32,35.32,0,0,1-31,0Zm26.59-14q3.93-4.53,3.93-12.7V181.76q0-8.17-3.93-12.63t-11.1-4.46q-7.17,0-11.1,4.46t-3.92,12.63v11.62q0,8.18,3.92,12.7t11.1,4.52Q583.57,210.6,587.49,206.08Z" transform="translate(-31.92 -5.38)"/><path class="cls-1" d="M624.55,152.58h13.69V222.7H624.55Zm33.74,13.24a16.31,16.31,0,0,0-6.37-1.15q-6.51,0-10.09,3.62t-3.59,10l-1.41-13.51a25.62,25.62,0,0,1,8.32-9.76,19.52,19.52,0,0,1,11.27-3.48A25.51,25.51,0,0,1,665,153a19.46,19.46,0,0,1,6.74,4.09l-8.93,12.16A11.37,11.37,0,0,0,658.29,165.82Z" transform="translate(-31.92 -5.38)"/><path class="cls-1" d="M677.81,152.58h31.4V165h-31.4Zm11.11,65.76Q685,213.65,685,204.46V132.18h13.68v72.41a6.62,6.62,0,0,0,1,3.95,3.4,3.4,0,0,0,3,1.39h6.58V223h-7.92Q692.85,223,688.92,218.34Z" transform="translate(-31.92 -5.38)"/><path class="cls-1" d="M741,222.49a41.71,41.71,0,0,1-10.1-3.64,39.73,39.73,0,0,1-8.65-6.08l8.11-10.07a45.76,45.76,0,0,0,11.21,6.49,30.22,30.22,0,0,0,11,2.16q8.11,0,12.17-2.54a8.35,8.35,0,0,0,4.06-7.59,6,6,0,0,0-2.21-5.07,12.38,12.38,0,0,0-5.51-2.26c-2.19-.39-5.27-.73-9.25-1l-1.14,0c-.4,0-.78-.06-1.14-.11a4.89,4.89,0,0,1-.54,0l-.54,0a53.73,53.73,0,0,1-11.47-2,15.55,15.55,0,0,1-7.81-5.43q-3.12-4-3.12-11.42a23.34,23.34,0,0,1,3-12.36,18.4,18.4,0,0,1,9-7.4q6-2.46,15-2.46a51.07,51.07,0,0,1,10.36,1,46,46,0,0,1,9.42,3,46.83,46.83,0,0,1,8.66,5l-8.25,10.06a45.57,45.57,0,0,0-10.3-5.06,31.06,31.06,0,0,0-9.89-1.69c-4.66,0-8.14.8-10.47,2.4a8.15,8.15,0,0,0-3.49,7.19,4.91,4.91,0,0,0,2,4.26,11.67,11.67,0,0,0,5,1.89q3,.47,8.59.81a5.46,5.46,0,0,0,.83.07,7.19,7.19,0,0,1,.91.06h.4a1.34,1.34,0,0,1,.4.07,59.36,59.36,0,0,1,12.45,2,16.78,16.78,0,0,1,8.62,5.88q3.48,4.38,3.49,12.7,0,7.56-3.22,12.53a19.49,19.49,0,0,1-9.7,7.46q-6.47,2.5-16.26,2.5A52.51,52.51,0,0,1,741,222.49Z" transform="translate(-31.92 -5.38)"/><path class="cls-1" d="M391.72,290.49h12.41l47.7,75.92-1.61,1.76V290.49h13.55v98.15H451.22l-47.56-74.78,1.61-1.76v76.54H391.72Z" transform="translate(-31.92 -5.38)"/><path class="cls-1" d="M407.69,554.38a49.33,49.33,0,0,1-22-10.81L394.21,533a38.49,38.49,0,0,0,12.27,7.3A42.41,42.41,0,0,0,421,542.76q10.59,0,16.43-4a12.73,12.73,0,0,0,5.84-11.18v-.07a11.9,11.9,0,0,0-2.65-8.14,15.91,15.91,0,0,0-6.84-4.46A75.49,75.49,0,0,0,423,512.29a1.49,1.49,0,0,0-.43-.06,1.5,1.5,0,0,1-.44-.07l-1-.2a104.11,104.11,0,0,1-15.93-3.82,22.49,22.49,0,0,1-10.5-7.77q-4.35-5.64-4.36-16v-.07a28.7,28.7,0,0,1,4.06-15.57,25.54,25.54,0,0,1,11.84-9.83q7.79-3.37,18.72-3.38a46.64,46.64,0,0,1,10.29,1.15,51.81,51.81,0,0,1,10,3.41,57.65,57.65,0,0,1,9.69,5.71l-7.78,10.95a45.52,45.52,0,0,0-11.1-6.19,31.7,31.7,0,0,0-11.1-2.06q-10,0-15.53,4a13.25,13.25,0,0,0-5.54,11.39v.06a10.84,10.84,0,0,0,2.86,8,17.16,17.16,0,0,0,7.11,4.29,104.66,104.66,0,0,0,11.84,2.87,5,5,0,0,0,.5.11,3.68,3.68,0,0,1,.5.1l.74.13.74.14a79.92,79.92,0,0,1,14.79,4.32,23.21,23.21,0,0,1,9.93,8.07q4,5.58,4,15.23v.14a27.2,27.2,0,0,1-4.23,15.37,26.36,26.36,0,0,1-12.24,9.72q-8,3.35-19.35,3.35A63.6,63.6,0,0,1,407.69,554.38Z" transform="translate(-31.92 -5.38)"/><path class="cls-1" d="M469.6,484.6H501V497H469.6Zm11.1,65.76q-3.92-4.7-3.92-13.88V464.2h13.68v72.41a6.64,6.64,0,0,0,1,3.95,3.4,3.4,0,0,0,2.95,1.39H501v13.1h-7.91Q484.62,555.05,480.7,550.36Z" transform="translate(-31.92 -5.38)"/><path class="cls-1" d="M533.46,527.22q0,7.37,3.72,11.38c2.49,2.68,6,4,10.5,4s7.94-1.19,10.4-3.58,3.69-5.78,3.69-10.2l.94,14.66a20.22,20.22,0,0,1-7,8.72,19.66,19.66,0,0,1-11.87,3.51q-11.54,0-17.81-7.47t-6.27-21V484.6h13.68Zm28.31-42.62h13.61v70.11H561.77Z" transform="translate(-31.92 -5.38)"/><path class="cls-1" d="M590.81,484.6h34.82v11.75H590.81Zm7.38-9.53q0-9.31,4.26-13.95t13.11-4.62h10.07v13.1h-9.8a3.35,3.35,0,0,0-3,1.49,6.73,6.73,0,0,0-1,3.85v79.77H598.19Z" transform="translate(-31.92 -5.38)"/><path class="cls-1" d="M634.35,484.6h34.81v11.75H634.35Zm7.38-9.53q0-9.31,4.26-13.95c2.83-3.08,7.21-4.62,13.11-4.62h10.06v13.1h-9.79a3.34,3.34,0,0,0-3,1.49,6.73,6.73,0,0,0-1,3.85v79.77H641.73Z" transform="translate(-31.92 -5.38)"/><path class="cls-1" d="M127.81,653.9a323.22,323.22,0,0,1-51.63-11,238.43,238.43,0,0,1-44.26-18.32l41.52-30.31a303.15,303.15,0,0,0,57.29,19.53A251.84,251.84,0,0,0,187,620.32q41.52,0,62.27-7.63T270,589.8q0-10.17-11.32-15.26t-28.14-6.82q-16.8-1.72-47.34-3.15c-1.83,0-3.77,0-5.83-.1s-4-.17-5.83-.31c-.92,0-1.84,0-2.75-.1s-1.83-.1-2.74-.1q-34.66-1.63-58.67-6t-40-16.38q-15.95-12-16-34.39T66.92,470q15.43-14.85,46-22.28t76.51-7.43a442.29,442.29,0,0,1,53,3.05,364.5,364.5,0,0,1,48.2,9.06,308.85,308.85,0,0,1,44.26,15.16l-42.2,30.32A322.94,322.94,0,0,0,240,482.57a262.42,262.42,0,0,0-50.6-5.09q-35.68,0-53.52,7.22T118,506.37q0,8.55,10.12,12.82t25.56,5.7q15.43,1.43,43.91,2.44a42.22,42.22,0,0,0,4.29.21c1.48,0,3,.06,4.63.2h2.06a11.14,11.14,0,0,1,2.06.2q37.38,1.42,63.64,5.9t44.08,17.7q17.83,13.25,17.84,38.26,0,22.79-16.47,37.74T270.19,650q-33.1,7.53-83.2,7.53A451.17,451.17,0,0,1,127.81,653.9Z" transform="translate(-31.92 -5.38)"/></svg>